<svg width="87" height="25" viewBox="0 0 87 25" fill="none" xmlns="http://www.w3.org/2000/svg">
<path d="M5.62686 2.81166C5.62686 4.3639 4.36743 5.62333 2.81166 5.62333C1.25943 5.6198 0 4.3639 0 2.81166C0 1.25943 1.25943 0 2.81519 0C4.36743 0 5.62686 1.25943 5.62686 2.81166Z" fill="#8DC21F"/>
<path d="M36.5234 4.87897C36.4316 5.06947 36.2023 5.28467 35.7931 5.36581C35.338 5.45753 34.6289 5.40461 33.6235 5.37286C32.9885 5.35522 32.2582 5.37286 31.4257 5.41167C29.0656 5.52456 26.5079 6.02903 24.3983 6.69226C22.2745 7.35902 20.1931 8.30447 18.4398 9.3734C16.944 10.2836 15.9068 11.1197 15.4412 11.61C15.0178 12.0581 14.5804 12.6084 14.5416 13.2787C14.5028 13.9666 14.9014 14.6686 15.7551 15.4236C16.6583 16.2209 17.258 16.7677 17.6672 17.2016L17.6707 17.2051C17.6849 17.2157 18.8914 18.4222 18.401 19.2936C18.2317 19.5899 17.9918 19.7346 17.6637 19.7346C17.5296 19.7346 17.385 19.7099 17.2262 19.664C16.1432 19.3324 15.0849 19.1666 14.0759 19.1666C11.2854 19.1666 9.31337 20.4542 8.15272 21.5338C6.93563 22.6662 6.34295 23.781 6.28298 23.8974C5.96548 24.4971 5.46806 25.1074 4.26155 24.984C4.17335 24.984 3.52423 24.9205 3.1009 24.3384C2.70578 23.7951 2.65286 22.9731 2.93862 21.8901C3.15029 21.0469 3.58068 20.1861 3.9264 19.4947C4.12043 19.1066 4.28977 18.775 4.39913 18.4893C4.49791 18.2282 4.6108 17.8472 4.41324 17.5579C4.25096 17.3216 3.91935 17.2051 3.40429 17.2051C3.26318 17.2051 3.1009 17.2122 2.92803 17.2298C2.78339 17.2439 2.64228 17.251 2.5047 17.251C1.35463 17.251 0.836043 16.7359 0.832515 16.7324C0.828988 16.7289 0.821932 16.7254 0.818404 16.7183C0.814876 16.7148 0.352733 16.3267 0.317455 15.7164C0.292761 15.2754 0.497374 14.8203 0.927766 14.3723C1.01949 14.2771 1.11474 14.1747 1.22057 14.0548C1.48516 13.762 1.81677 13.3986 2.38828 12.8448C3.69357 11.5783 3.81704 10.9962 3.59479 10.1742C3.27376 8.97828 3.29493 7.97638 3.65829 7.27082C3.9264 6.74871 4.2933 6.56879 4.29682 6.56879C4.30741 6.56526 4.31446 6.5582 4.32152 6.55468C4.47674 6.44532 4.91066 6.23717 5.45395 6.23717C6.14892 6.23717 6.75923 6.56173 7.26371 7.20379C8.08216 8.23744 9.24987 8.26919 9.3804 8.26919C9.38745 8.26919 9.39098 8.26919 9.39451 8.26919C10.3999 8.26919 11.1196 7.92347 12.8553 7.09443C13.0634 6.99565 13.2822 6.88982 13.522 6.77693C13.5256 6.77693 13.5256 6.7734 13.5291 6.7734C13.5467 6.76635 15.1695 5.8985 18.02 5.04125C19.6957 4.5403 21.4561 4.13813 23.2588 3.85237C25.5131 3.49607 27.8344 3.31262 30.1627 3.31262H30.1662C31.3375 3.31262 32.5299 3.35848 33.7082 3.4502C35.8601 3.61601 36.4387 4.09932 36.5445 4.47327C36.541 4.47327 36.601 4.72022 36.5234 4.87897Z" fill="#C3D600"/>
<path d="M22.1546 10.0155H24.7723C26.6738 10.0155 27.1571 11.1549 27.1571 12.0863C27.1571 13.0282 26.4515 13.9172 25.3297 14.0442L27.4816 17.4768H26.2222L24.2925 14.1606H23.1671V17.4803H22.1546V10.0155ZM23.1636 13.2787H24.4865C25.2838 13.2787 26.0846 13.0917 26.0846 12.0863C26.0846 11.0809 25.2873 10.8939 24.4865 10.8939H23.1636V13.2787Z" fill="#4C4948"/>
<path d="M32.1454 17.4627V16.5419H32.1243C31.7327 17.2051 31.0166 17.5191 30.2792 17.5191C28.4448 17.5191 27.397 16.1221 27.397 14.6969C27.397 13.381 28.3284 11.8287 30.2792 11.8287C31.0342 11.8287 31.7292 12.1427 32.1243 12.7354H32.1454V12.0792H33.165V17.4627H32.1454ZM30.2828 12.753C29.0269 12.753 28.4201 13.8361 28.4201 14.6863C28.4201 15.6635 29.1962 16.5913 30.2722 16.5913C31.3411 16.5913 32.1666 15.7234 32.1666 14.6863C32.1666 13.5327 31.3305 12.753 30.2828 12.753Z" fill="#4C4948"/>
<path d="M34.2091 17.4627V12.0757H35.1616V12.5414H35.1828C35.6132 11.9381 36.3117 11.9169 36.5657 11.9064V12.9506C36.4105 12.9506 36.0753 13.0176 35.8319 13.1446C35.5074 13.321 35.2322 13.7302 35.2322 14.5028V17.4591H34.2091V17.4627Z" fill="#4C4948"/>
<path d="M38.0616 15.7728C38.7143 16.6301 39.6562 16.6901 40.2877 16.4184C40.9791 16.1186 41.3108 15.5012 41.346 14.972L42.2809 14.5699C42.3621 16.0551 41.3919 16.9511 40.6193 17.2863C39.2046 17.8966 37.5571 17.1699 36.9433 15.7623C36.2977 14.2735 36.9609 12.6578 38.365 12.0545C39.7162 11.4724 41.3707 12.0581 42.0093 13.5045C42.0798 13.6667 42.1716 13.9243 42.1892 13.9913L38.0616 15.7728ZM40.9721 13.6667C40.6122 12.9612 39.6315 12.5237 38.7284 12.9083C37.8288 13.2963 37.4795 14.3088 37.7476 15.0532L40.9721 13.6667Z" fill="#4C4948"/>
<path d="M46.5812 15.3389C46.5812 15.7376 46.5142 16.1009 46.4048 16.3655C46.0803 17.1275 45.3747 17.5156 44.5809 17.5156C43.639 17.5156 42.7571 16.9017 42.5807 15.9351H43.6672C43.893 16.5207 44.3446 16.549 44.588 16.549C44.9514 16.549 45.3041 16.362 45.4417 15.9351C45.4805 15.7869 45.5193 15.5929 45.5193 15.3989V10.0155H46.5777V15.3389H46.5812Z" fill="#4C4948"/>
<path d="M50.2184 17.5156C48.3946 17.5156 47.2868 16.0021 47.2868 14.6369C47.2868 13.1623 48.5321 11.8252 50.2184 11.8252C51.8659 11.8252 53.15 13.1129 53.15 14.6545C53.15 15.9739 52.0635 17.5156 50.2184 17.5156ZM50.2184 12.753C49.0719 12.753 48.3064 13.6985 48.3064 14.6651C48.3064 15.6423 49.0825 16.5878 50.2184 16.5878C51.3156 16.5878 52.1305 15.6811 52.1305 14.6545C52.1305 13.6985 51.3685 12.753 50.2184 12.753Z" fill="#4C4948"/>
<path d="M53.9366 17.4627V10.019H54.9562V12.7248H54.9773C55.4183 12.111 56.1062 11.8287 56.84 11.8287C58.2829 11.8287 59.6552 13.0106 59.6552 14.6792C59.6552 16.242 58.4487 17.5191 56.8612 17.5191C56.3602 17.5191 55.5277 17.3427 54.9703 16.6019H54.9491V17.4627H53.9366ZM56.7836 16.5878C57.7643 16.5878 58.6357 15.7481 58.6357 14.6757C58.6357 13.6597 57.8525 12.753 56.7836 12.753C55.6653 12.753 54.9315 13.6985 54.9315 14.658C54.9279 15.8751 55.8699 16.5878 56.7836 16.5878Z" fill="#4C4948"/>
<path d="M65.4973 13.762H68.4289V13.9948C68.4289 14.5275 68.3654 15.0003 68.2419 15.4095C68.1184 15.7905 67.9138 16.1433 67.621 16.4749C66.9613 17.2157 66.1252 17.5861 65.1092 17.5861C64.1179 17.5861 63.2677 17.2263 62.5586 16.5102C61.8495 15.7905 61.4967 14.9262 61.4967 13.9207C61.4967 12.8906 61.8566 12.0193 62.5762 11.3031C63.2959 10.5834 64.1708 10.2236 65.2044 10.2236C65.7583 10.2236 66.2769 10.3365 66.7567 10.5623C67.2153 10.788 67.6669 11.1549 68.1114 11.6629L67.3494 12.3932C66.7673 11.6171 66.0582 11.2326 65.2221 11.2326C64.4707 11.2326 63.8427 11.4901 63.3347 12.0087C62.8267 12.5167 62.5727 13.1552 62.5727 13.9207C62.5727 14.711 62.8549 15.3636 63.4229 15.8716C63.9521 16.3443 64.5271 16.5842 65.1445 16.5842C65.6701 16.5842 66.1464 16.4078 66.5626 16.0515C66.9825 15.6917 67.2153 15.2648 67.2647 14.7639H65.4973V13.762Z" fill="#4C4948"/>
<path d="M69.1063 12.9788H70.14V13.3774C70.3305 13.1799 70.4998 13.0423 70.6444 12.9682C70.7961 12.8906 70.9725 12.8518 71.1771 12.8518C71.4488 12.8518 71.7345 12.94 72.0309 13.1199L71.5582 14.0654C71.3606 13.9243 71.1701 13.8537 70.9831 13.8537C70.4187 13.8537 70.1364 14.2806 70.1364 15.1308V17.4521H69.1028V12.9788H69.1063Z" fill="#4C4948"/>
<path d="M71.8615 15.1837C71.8615 14.5381 72.0908 13.9878 72.5564 13.5362C73.0186 13.0811 73.583 12.8553 74.2463 12.8553C74.913 12.8553 75.481 13.0846 75.9467 13.5397C76.4053 13.9948 76.6346 14.5557 76.6346 15.2225C76.6346 15.8928 76.4053 16.4537 75.9396 16.9088C75.4739 17.3603 74.9024 17.5826 74.2251 17.5826C73.5548 17.5826 72.9939 17.3533 72.5388 16.8947C72.0872 16.4396 71.8615 15.8716 71.8615 15.1837ZM72.9163 15.2013C72.9163 15.6494 73.0362 16.0021 73.2761 16.2632C73.5195 16.5278 73.8441 16.6583 74.2463 16.6583C74.652 16.6583 74.973 16.5278 75.2164 16.2667C75.4598 16.0057 75.5798 15.6599 75.5798 15.2225C75.5798 14.7886 75.4598 14.4393 75.2164 14.1783C74.973 13.9137 74.6484 13.7831 74.2463 13.7831C73.8511 13.7831 73.5301 13.9137 73.2867 14.1783C73.0397 14.4464 72.9163 14.785 72.9163 15.2013Z" fill="#4C4948"/>
<path d="M78.2892 12.9788V15.5471C78.2892 16.2879 78.582 16.6583 79.1677 16.6583C79.7533 16.6583 80.0461 16.2879 80.0461 15.5471V12.9788H81.0797V15.5682C81.0797 15.9281 81.0339 16.235 80.9457 16.496C80.861 16.7289 80.7128 16.937 80.5012 17.124C80.1519 17.4274 79.7074 17.5791 79.1677 17.5791C78.6314 17.5791 78.1904 17.4274 77.8412 17.124C77.626 16.937 77.4743 16.7289 77.3861 16.496C77.3014 16.2879 77.2591 15.9774 77.2591 15.5682V12.9788H78.2892Z" fill="#4C4948"/>
<path d="M82.9459 19.8898H81.9123V12.9788H82.9459V13.4656C83.3551 13.0564 83.8137 12.8553 84.3323 12.8553C84.9461 12.8553 85.4541 13.0811 85.8527 13.5362C86.2584 13.9878 86.4595 14.5557 86.4595 15.2401C86.4595 15.9104 86.2584 16.4713 85.8563 16.9158C85.4576 17.3603 84.9567 17.5826 84.3499 17.5826C83.8278 17.5826 83.3586 17.3709 82.9459 16.9546V19.8898ZM85.4047 15.2437C85.4047 14.8168 85.2883 14.4675 85.0555 14.1959C84.8191 13.9243 84.5228 13.7867 84.163 13.7867C83.782 13.7867 83.4751 13.9172 83.2387 14.1818C83.0023 14.4464 82.8859 14.7921 82.8859 15.219C82.8859 15.6388 83.0059 15.9845 83.2387 16.2561C83.4715 16.5243 83.7784 16.6548 84.1559 16.6548C84.5157 16.6548 84.8085 16.5207 85.0414 16.2491C85.2848 15.9845 85.4047 15.6494 85.4047 15.2437Z" fill="#4C4948"/>
</svg>
