<svg width="196" height="34" viewBox="0 0 196 34" fill="none" xmlns="http://www.w3.org/2000/svg">
<path d="M0 0.513462H11.6965C13.6376 0.513462 15.3971 0.738876 16.9687 1.18344C18.5403 1.63427 19.8991 2.27921 21.0324 3.11825C22.1657 3.96355 23.0361 4.9967 23.6435 6.2177C24.2446 7.43869 24.5514 8.84127 24.5514 10.4254C24.5514 12.2475 24.2007 13.8192 23.5057 15.1216C22.8107 16.4302 21.8589 17.526 20.6505 18.4026C19.442 19.2792 18.0144 19.9241 16.3676 20.3374C14.7208 20.7507 12.9425 20.9573 11.039 20.9573H6.69982V30.719L0 33.6744V0.513462ZM6.69982 16.0608H9.77422C10.87 16.0608 11.8969 15.9731 12.8486 15.8041C13.8004 15.635 14.6331 15.3407 15.347 14.9275C16.0608 14.5142 16.618 13.9632 17.025 13.2744C17.4258 12.5857 17.6262 11.7278 17.6262 10.6947C17.6262 9.76797 17.4446 8.9665 17.0751 8.29652C16.712 7.62654 16.2048 7.07552 15.5661 6.64348C14.9274 6.21144 14.1823 5.8921 13.3433 5.68547C12.498 5.47884 11.6214 5.37866 10.7072 5.37866H6.69982V16.0608Z" fill="#222222"/>
<path d="M29.7547 0.513462H42.2214C44.1249 0.513462 45.7904 0.770184 47.2181 1.28989C48.6457 1.80333 49.8416 2.51088 50.8122 3.40628C51.7827 4.30168 52.5153 5.35361 53.0099 6.55582C53.5046 7.76429 53.7488 9.06669 53.7488 10.4818C53.7488 11.7904 53.5359 12.9426 53.1164 13.9444C52.6969 14.9462 52.1584 15.8229 51.4947 16.5805C50.8372 17.3381 50.1046 17.9643 49.2969 18.4652C48.4891 18.9661 47.7064 19.3669 46.9363 19.6799L55.6711 33.0545H48.0383L40.8438 20.8133H36.2855V33.0545H29.7547V0.513462ZM36.2917 15.9043H39.6416C41.7267 15.9043 43.4486 15.4973 44.8011 14.6895C46.1536 13.8818 46.8361 12.5293 46.8361 10.6383C46.8361 8.91641 46.2976 7.60775 45.2144 6.71236C44.1374 5.81696 42.5532 5.37239 40.4619 5.37239H36.2855V15.9043H36.2917Z" fill="#222222"/>
<path d="M75.5264 0C77.9433 0 80.1724 0.369429 82.2262 1.10829C84.2737 1.84715 86.0457 2.93039 87.5234 4.36427C89.0074 5.7919 90.1658 7.55138 91.0111 9.6302C91.8501 11.7153 92.2759 14.1134 92.2759 16.8309C92.2759 19.4796 91.8439 21.8402 90.986 23.9064C90.1282 25.9727 88.9385 27.7197 87.417 29.1473C85.8954 30.575 84.1046 31.6707 82.0321 32.4284C79.9658 33.186 77.7242 33.568 75.3072 33.568C72.8903 33.568 70.6549 33.2048 68.6074 32.4847C66.5536 31.7646 64.7879 30.6939 63.3102 29.2851C61.8262 27.8762 60.6678 26.1293 59.8225 24.0442C58.9772 21.9591 58.5577 19.561 58.5577 16.8435C58.5577 14.1948 58.9897 11.828 59.8476 9.74291C60.7054 7.65783 61.8951 5.89834 63.4166 4.45193C64.9382 3.00553 66.7289 1.9035 68.8015 1.14586C70.8678 0.381952 73.1094 0 75.5264 0ZM65.6958 16.8372C65.6958 18.8659 65.9525 20.6254 66.466 22.1031C66.9794 23.5808 67.6807 24.8144 68.5824 25.7974C69.4778 26.7805 70.5234 27.5131 71.7131 27.989C72.9028 28.4711 74.1739 28.709 75.5326 28.709C76.8851 28.709 78.1499 28.4711 79.3208 27.989C80.4918 27.5068 81.5061 26.7742 82.3702 25.7974C83.228 24.8144 83.9105 23.5871 84.3989 22.1031C84.8936 20.6254 85.1378 18.8659 85.1378 16.8372C85.1378 14.7709 84.8811 12.9801 84.3676 11.4648C83.8542 9.94954 83.1529 8.7035 82.2512 7.72044C81.3558 6.73739 80.3102 6.01731 79.1205 5.55396C77.9308 5.09061 76.6597 4.85893 75.301 4.85893C73.9485 4.85893 72.6836 5.10939 71.5127 5.61031C70.3418 6.11123 69.3275 6.85009 68.4634 7.83315C67.6056 8.81621 66.9231 10.0622 66.4284 11.5775C65.94 13.0803 65.6958 14.8398 65.6958 16.8372Z" fill="#222222"/>
<path d="M114.855 0C116.94 0 118.818 0.156538 120.484 0.463352C122.15 0.770166 123.659 1.23978 125.017 1.85967L123.59 6.29908C122.306 5.7105 120.991 5.29098 119.639 5.03425C118.286 4.77753 116.909 4.64604 115.519 4.64604C113.978 4.64604 112.526 4.87146 111.154 5.31602C109.783 5.76059 108.575 6.48066 107.529 7.45746C106.483 8.44052 105.663 9.69282 105.056 11.2269C104.455 12.761 104.148 14.6269 104.148 16.8309C104.148 20.7193 105.074 23.6998 106.922 25.7661C108.769 27.8324 111.417 28.8656 114.855 28.8656C117.015 28.8656 118.699 28.6402 119.908 28.1956L120.058 19.06L113.922 21.7525V17L126.276 11.6464V31.6018C124.811 32.1904 123.145 32.66 121.279 33.0232C119.413 33.3864 117.272 33.568 114.855 33.568C112.363 33.568 110.034 33.2048 107.855 32.4847C105.676 31.7646 103.778 30.6939 102.169 29.2851C100.56 27.8762 99.295 26.1293 98.3809 24.0442C97.4667 21.9591 97.0096 19.561 97.0096 16.8435C97.0096 14.126 97.4667 11.7153 98.3809 9.61142C99.295 7.51381 100.547 5.74807 102.144 4.32044C103.734 2.89282 105.619 1.81584 107.798 1.09576C109.977 0.363168 112.332 0 114.855 0Z" fill="#222222"/>
<path d="M148.705 0C151.122 0 153.351 0.369429 155.404 1.10829C157.452 1.84715 159.224 2.93039 160.702 4.36427C162.186 5.7919 163.344 7.55138 164.189 9.6302C165.028 11.7153 165.454 14.1134 165.454 16.8309C165.454 19.4796 165.022 21.8402 164.164 23.9064C163.306 25.9727 162.117 27.7197 160.595 29.1473C159.074 30.575 157.283 31.6707 155.217 32.4284C153.15 33.186 150.902 33.568 148.492 33.568C146.081 33.568 143.839 33.2048 141.792 32.4847C139.744 31.7646 137.972 30.6939 136.495 29.2851C135.011 27.8762 133.852 26.1293 133.007 24.0442C132.162 21.9591 131.742 19.561 131.742 16.8435C131.742 14.1948 132.174 11.828 133.032 9.74291C133.89 7.65783 135.08 5.89834 136.601 4.45193C138.123 3.00553 139.913 1.9035 141.98 1.14586C144.046 0.381952 146.294 0 148.705 0ZM138.88 16.8372C138.88 18.8659 139.137 20.6254 139.65 22.1031C140.164 23.5808 140.865 24.8144 141.767 25.7974C142.662 26.7805 143.708 27.5131 144.898 27.989C146.087 28.4711 147.358 28.709 148.717 28.709C150.07 28.709 151.334 28.4711 152.505 27.989C153.676 27.5068 154.691 26.7742 155.555 25.7974C156.413 24.8144 157.095 23.5871 157.59 22.1031C158.084 20.6254 158.329 18.8659 158.329 16.8372C158.329 14.7709 158.072 12.9801 157.558 11.4648C157.045 9.94954 156.344 8.7035 155.442 7.72044C154.547 6.73739 153.501 6.01731 152.311 5.55396C151.122 5.09061 149.85 4.85893 148.492 4.85893C147.139 4.85893 145.874 5.10939 144.704 5.61031C143.533 6.11123 142.518 6.85009 141.654 7.83315C140.79 8.81621 140.114 10.0622 139.619 11.5775C139.125 13.0803 138.88 14.8398 138.88 16.8372Z" fill="#222222"/>
<path d="M195.24 24.9333C195.24 27.7635 194.132 29.9801 191.909 31.5893C189.686 33.1985 186.693 34 182.93 34C180.319 34 177.94 33.5366 175.798 32.6162C173.651 31.702 172.016 30.4372 170.889 28.8342C170.301 28.0015 169.862 27.0873 169.581 26.1105L174.884 23.8438C176.794 27.5381 178.447 28.6777 182.924 28.6777C184.589 28.6777 185.885 28.3521 186.818 27.7072C187.745 27.0497 188.215 26.1418 188.215 24.9772C188.215 23.7061 187.745 22.7355 186.818 22.0468C185.885 21.3705 184.207 20.6505 181.778 19.8991C179.355 19.1477 177.432 18.3963 176.024 17.67C172.167 15.6663 170.238 12.9676 170.238 9.56758C170.238 7.80183 170.758 6.23019 171.791 4.8464C172.824 3.46261 174.308 2.38563 176.249 1.60294C178.19 0.820249 180.357 0.438297 182.761 0.438297C185.184 0.438297 187.344 0.86408 189.242 1.70312C191.139 2.54843 192.604 3.73811 193.656 5.27845C194.176 6.03609 194.564 6.85008 194.827 7.71417L188.916 10.2C188.209 8.36537 187.745 7.87071 186.768 7.03793C185.792 6.21141 184.414 5.79189 182.642 5.79189C180.933 5.79189 179.605 6.14253 178.653 6.83756C177.708 7.52633 177.232 8.44677 177.232 9.58636C177.232 10.6446 177.789 11.54 178.904 12.2538C180.012 12.9676 181.653 13.6438 183.813 14.27C187.789 15.4221 190.682 16.8497 192.504 18.5591C194.332 20.2685 195.24 22.3912 195.24 24.9333Z" fill="#222222"/>
</svg>
