<svg width="28" height="28" viewBox="0 0 28 28" fill="none" xmlns="http://www.w3.org/2000/svg">
<circle cx="14" cy="14" r="14" fill="#519CCC"/>
<path d="M18.0879 14.2832C18.0879 15.2266 17.9375 16.0446 17.6367 16.7373C17.3405 17.4255 16.9235 17.9723 16.3857 18.3779L18.0947 19.7109L16.9736 20.7227L14.8545 19.0479C14.5765 19.1071 14.278 19.1367 13.959 19.1367C13.1569 19.1367 12.4391 18.9408 11.8057 18.5488C11.1768 18.1523 10.6891 17.5895 10.3428 16.8604C10.001 16.1312 9.8278 15.2904 9.82324 14.3379V13.7773C9.82324 12.8066 9.99414 11.9499 10.3359 11.207C10.6823 10.4642 11.1676 9.89681 11.792 9.50488C12.4209 9.1084 13.1387 8.91016 13.9453 8.91016C14.7656 8.91016 15.488 9.10612 16.1123 9.49805C16.7412 9.88542 17.2266 10.446 17.5684 11.1797C17.9102 11.9089 18.0833 12.7588 18.0879 13.7295V14.2832ZM16.3516 13.7637C16.3516 12.6426 16.1419 11.7926 15.7227 11.2139C15.3034 10.6351 14.7109 10.3457 13.9453 10.3457C13.2025 10.3457 12.6191 10.6396 12.1953 11.2275C11.776 11.8109 11.5618 12.6357 11.5527 13.7021V14.2832C11.5527 15.3587 11.7624 16.1995 12.1816 16.8057C12.6055 17.4118 13.1979 17.7148 13.959 17.7148C14.7292 17.7148 15.3193 17.4232 15.7295 16.8398C16.1442 16.2565 16.3516 15.4043 16.3516 14.2832V13.7637Z" fill="white"/>
</svg>
